<svg id="Layer_1" data-name="Layer 1" xmlns="http://www.w3.org/2000/svg" viewBox="0 0 637.93 456.75"><defs><style>.cls-1{fill:#333;}.cls-2{fill:#d4b400;stroke:#347a20;stroke-miterlimit:10;stroke-width:40px;}.cls-3{fill:#666;}</style></defs><title>gst-ready</title><path class="cls-1" d="M253.8,322.35a164.45,164.45,0,0,1-54.75,9.9c-27,0-49.2-7-66.66-23.8-15.34-15-24.86-39.05-24.86-67.14.26-53.76,36.77-93.08,96.55-93.08,20.63,0,36.77,4.55,44.44,8.29l-5.55,19c-9.52-4.28-21.43-7.76-39.41-7.76-43.38,0-71.68,27.28-71.68,72.48C131.86,286,159.1,313,200.63,313c15.08,0,25.39-2.14,30.68-4.81V254.41H195.08V235.69H253.8Z" transform="translate(-107.52 -2.41)"/><path class="cls-1" d="M285.8,302a80.89,80.89,0,0,0,41.26,11.77c23.54,0,37.3-12.57,37.3-30.76,0-16.85-9.52-26.48-33.59-35.84-29.1-10.43-47.08-25.68-47.08-51.09,0-28.08,23-48.95,57.66-48.95,18.25,0,31.48,4.28,39.41,8.83l-6.35,19a70.4,70.4,0,0,0-33.86-8.56c-24.33,0-33.59,14.71-33.59,27,0,16.85,10.85,25.14,35.44,34.77,30.15,11.77,45.5,26.48,45.5,53,0,27.82-20.37,51.89-62.42,51.89-17.19,0-36-5.08-45.5-11.5Z" transform="translate(-107.52 -2.41)"/><path class="cls-1" d="M453.24,169.89H399V150.1H531v19.79H476.52V330.38H453.24Z" transform="translate(-107.52 -2.41)"/><line class="cls-2" x1="161.46" y1="129.19" x2="366.35" y2="17.56"/><line class="cls-2" x1="119.03" y1="42.55" x2="174.8" y2="144.55"/><path class="cls-3" d="M452.58,354.39a107.12,107.12,0,0,1,19.75-1.66c11,0,18.09,2,23.06,6.5,4,3.55,6.27,9,6.27,15.13,0,10.52-6.62,17.5-15,20.34v.35c6.15,2.13,9.81,7.8,11.71,16.08,2.6,11.11,4.49,18.8,6.15,21.87H493.84c-1.3-2.25-3.07-9.1-5.32-19-2.37-11-6.62-15.13-16-15.49h-9.7V433H452.58Zm10.29,36.3h10.52c11,0,18-6,18-15.13,0-10.29-7.45-14.78-18.33-14.9a42.27,42.27,0,0,0-10.17.95Z" transform="translate(-107.52 -2.41)"/><path class="cls-3" d="M522.1,406.3c.24,14.07,9.22,19.86,19.63,19.86,7.45,0,11.94-1.3,15.84-3l1.77,7.45c-3.67,1.66-9.93,3.55-19,3.55-17.62,0-28.14-11.59-28.14-28.85S522.34,374.5,539,374.5c18.68,0,23.65,16.44,23.65,27a39.24,39.24,0,0,1-.35,4.85Zm30.51-7.45c.12-6.62-2.72-16.91-14.43-16.91-10.52,0-15.13,9.7-16,16.91Z" transform="translate(-107.52 -2.41)"/><path class="cls-3" d="M607.23,433l-.83-7.21h-.35a21.32,21.32,0,0,1-17.5,8.51c-11.59,0-17.5-8.16-17.5-16.44,0-13.83,12.3-21.4,34.41-21.28v-1.18c0-4.73-1.3-13.24-13-13.24a28.51,28.51,0,0,0-14.9,4.26l-2.37-6.86c4.73-3.07,11.59-5.08,18.8-5.08,17.5,0,21.76,11.94,21.76,23.41v21.4a80.53,80.53,0,0,0,.95,13.72Zm-1.54-29.21c-11.35-.24-24.24,1.77-24.24,12.89,0,6.74,4.49,9.93,9.81,9.93a14.24,14.24,0,0,0,13.83-9.58,10.86,10.86,0,0,0,.59-3.31Z" transform="translate(-107.52 -2.41)"/><path class="cls-3" d="M682,349.07v69.17c0,5.08.12,10.88.47,14.78h-9.34l-.47-9.93h-.24c-3.19,6.39-10.17,11.23-19.51,11.23-13.83,0-24.48-11.71-24.48-29.09-.12-19,11.71-30.74,25.66-30.74,8.75,0,14.66,4.14,17.26,8.75h.24V349.07Zm-10.41,50a18.38,18.38,0,0,0-.47-4.37,15.3,15.3,0,0,0-15-12.06c-10.76,0-17.14,9.46-17.14,22.11,0,11.59,5.68,21.17,16.91,21.17a15.64,15.64,0,0,0,15.25-12.42,18.09,18.09,0,0,0,.47-4.49Z" transform="translate(-107.52 -2.41)"/><path class="cls-3" d="M703,375.8l12.53,33.82c1.3,3.78,2.72,8.28,3.67,11.71h.24c1.06-3.43,2.25-7.8,3.67-11.94l11.35-33.58h11l-15.61,40.79c-7.45,19.63-12.53,29.68-19.63,35.83a28.19,28.19,0,0,1-12.77,6.74l-2.6-8.75a27.5,27.5,0,0,0,9.1-5.08,31.54,31.54,0,0,0,8.75-11.59,7.47,7.47,0,0,0,.83-2.48,9.07,9.07,0,0,0-.71-2.72L691.66,375.8Z" transform="translate(-107.52 -2.41)"/></svg>