<?xml version="1.0" encoding="utf-8"?>
<!-- Generator: Adobe Illustrator 19.1.0, SVG Export Plug-In . SVG Version: 6.00 Build 0)  -->
<svg version="1.1" id="Layer_1" xmlns="http://www.w3.org/2000/svg" xmlns:xlink="http://www.w3.org/1999/xlink" x="0px" y="0px"
	 viewBox="72 147 843 407" style="enable-background:new 72 147 843 407;" xml:space="preserve">
<style type="text/css">
	.st0{fill:#352169;}
	.st1{display:none;}
	.st2{fill:none;}
	.st3{fill:#5F21B7;}
	.st4{fill:#FFFFFF;}
</style>
<rect x="72" y="337.3" class="st0" width="843" height="8.7"/>
<g>
	<g>
		<g>
			<g>
				<g id="Layer_5" class="st1">
				</g>
				<g id="end_points" class="st1">
				</g>
				<g id="heroku">
				</g>
			</g>
		</g>
	</g>
</g>
<g>
	<path class="st2" d="M257.3,442.4c2,0,2.9-0.6,2.9-2.1s-0.9-2.1-2.9-2.1h-2.4v4.2L257.3,442.4L257.3,442.4z"/>
	<path class="st2" d="M286.9,442.8c0-3.1-1.5-4.8-3.7-4.8c-2.3,0-3.8,1.7-3.8,4.8s1.5,4.9,3.8,4.9
		C285.4,447.7,286.9,445.9,286.9,442.8z"/>
	<path class="st2" d="M229.4,438.2h-1.7v9.2h1.7c3,0,4.5-1.3,4.5-4.7C233.9,439.5,232.5,438.2,229.4,438.2z"/>
	<polygon class="st2" points="506.4,438.9 504.5,444.3 508.2,444.3 	"/>
	<polygon class="st2" points="477.2,438.9 475.3,444.3 479,444.3 	"/>
	<polygon class="st2" points="731.9,438.9 730,444.3 733.7,444.3 	"/>
	<path class="st3" d="M502.4,360.8l15.6,9c2.5,1.4,5.4,1.4,7.8,0l15.6-9c0.1-0.1,0.2-0.1,0.3-0.2c0.1-0.1,0.2-0.2,0.3-0.2
		c1.1-0.9,1.9-2.2,1.9-3.7c0.1-1.5-0.4-3-1.5-4l-15.6,9c-1.5,0.9-3.2,1.3-4.9,1.3c-1.7,0-3.4-0.4-4.9-1.3l-15.6-9
		c-0.1,0-0.1-0.1-0.2-0.1c-1,1-1.6,2.5-1.5,4C499.9,358.3,500.8,359.8,502.4,360.8z M507.1,357.9c0.8,0,1.4,0.6,1.4,1.4
		s-0.6,1.4-1.4,1.4s-1.4-0.6-1.4-1.4C505.7,358.6,506.3,357.9,507.1,357.9z M503.6,355.9c0.8,0,1.4,0.6,1.4,1.4s-0.6,1.4-1.4,1.4
		s-1.4-0.6-1.4-1.4C502.2,356.6,502.8,355.9,503.6,355.9z"/>
	<path class="st3" d="M481.1,364.1c-0.2,0.2-0.4,0.3-0.7,0.3h-6.8c-0.3,0-0.6-0.1-0.8-0.4l-4.9-6.1l-8.4,10.8
		c-0.2,0.2-0.5,0.3-0.8,0.3c-0.2,0-0.3,0-0.5-0.1l-11.8-6.2v2.4c0,2.3,1.2,4.3,3.1,5.4l15.3,8.9c2,1.1,4.3,1.1,6.3,0l15.3-8.9
		c1.9-1.1,3.1-3.2,3.1-5.4v-9.4L481.1,364.1z"/>
	<path class="st3" d="M446.4,348.5l11.6,5.7l8.3-9.5c0.2-0.2,0.5-0.3,0.7-0.3c0.3,0,0.6,0.1,0.7,0.3l5.1,5.4l5.6-7.1
		c0.2-0.2,0.4-0.4,0.7-0.4l7.3-0.6l-15.3-8.9c-1-0.6-2.1-0.9-3.1-0.9c-1.1,0-2.2,0.3-3.2,0.9l-15.3,8.9c-2,1.1-3.2,3.2-3.1,5.4
		V348.5z"/>
	<path class="st3" d="M503.6,367c-0.3,0-0.6,0.3-0.6,0.6s0.3,0.6,0.6,0.6s0.6-0.3,0.6-0.6S503.9,367,503.6,367z"/>
	<path class="st3" d="M503.6,357.9c0.3,0,0.6-0.3,0.6-0.6s-0.3-0.6-0.6-0.6s-0.6,0.3-0.6,0.6S503.3,357.9,503.6,357.9z"/>
	<path class="st3" d="M507.1,369.1c-0.3,0-0.6,0.3-0.6,0.6s0.3,0.6,0.6,0.6s0.6-0.3,0.6-0.6S507.4,369.1,507.1,369.1z"/>
	<path class="st3" d="M507.1,359.9c0.3,0,0.6-0.3,0.6-0.6s-0.3-0.6-0.6-0.6s-0.6,0.3-0.6,0.6S506.8,359.9,507.1,359.9z"/>
	<path class="st3" d="M495.2,319.2c0,0.1,0,0.2-0.1,0.4c0.2,1,1.1,1.8,2.2,1.8c1.2,0,2.2-1,2.2-2.2s-1-2.2-2.2-2.2
		c-1.1,0-2,0.8-2.2,1.8C495.1,318.9,495.2,319,495.2,319.2z"/>
	<path class="st3" d="M504.3,302.7c1.2,0,2.2-1,2.2-2.2s-1-2.2-2.2-2.2c-1.2,0-2.2,1-2.2,2.2S503.1,302.7,504.3,302.7z"/>
	<path class="st3" d="M502.5,350.8l15.6,9c2.5,1.4,5.4,1.4,7.8,0l15.6-9c1.6-0.9,2.6-2.6,2.6-4.5s-1-3.6-2.6-4.5l-15.6-9
		c-2.5-1.4-5.4-1.4-7.8,0l-15.6,9c-1.6,0.9-2.6,2.6-2.6,4.5S500.9,349.9,502.5,350.8z M503.6,348.3c-0.8,0-1.4-0.6-1.4-1.4
		c0-0.8,0.6-1.4,1.4-1.4s1.4,0.6,1.4,1.4S504.4,348.3,503.6,348.3z M507.1,350.3c-0.8,0-1.4-0.6-1.4-1.4c0-0.8,0.6-1.4,1.4-1.4
		s1.4,0.6,1.4,1.4S507.9,350.3,507.1,350.3z"/>
	<path class="st3" d="M490.7,312c1.2,0,2.2-1,2.2-2.2s-1-2.2-2.2-2.2s-2.2,1-2.2,2.2S489.5,312,490.7,312z"/>
	<path class="st3" d="M542.4,362.4l-15.6,9c-1.5,0.9-3.2,1.3-4.9,1.3s-3.4-0.4-4.9-1.3l-15.5-9c-1.1,1-1.8,2.5-1.7,4.1
		c0.1,1.8,1,3.3,2.6,4.2l15.6,9c2.5,1.4,5.4,1.4,7.8,0l15.6-9c1.5-0.9,2.5-2.5,2.6-4.3C544,364.9,543.5,363.5,542.4,362.4
		C542.4,362.4,542.4,362.4,542.4,362.4z M503.6,369c-0.8,0-1.4-0.6-1.4-1.4c0-0.8,0.6-1.4,1.4-1.4s1.4,0.6,1.4,1.4
		S504.4,369,503.6,369z M507.1,371.1c-0.8,0-1.4-0.6-1.4-1.4c0-0.8,0.6-1.4,1.4-1.4s1.4,0.6,1.4,1.4
		C508.5,370.5,507.9,371.1,507.1,371.1z"/>
	<path class="st3" d="M476.5,323.8l15.3,8.9c2,1.1,4.3,1.1,6.3,0l15.3-8.9c1.9-1.1,3.1-3.2,3.1-5.4v-17.7c0-2.3-1.2-4.3-3.1-5.4
		l-15.3-8.9c-1-0.6-2.1-0.9-3.1-0.9c-1.1,0-2.2,0.3-3.2,0.9l-15.3,8.9c-2,1.1-3.2,3.2-3.1,5.4v17.7
		C473.4,320.6,474.6,322.6,476.5,323.8z M483.1,299.5h17.1c0.5-1.8,2.1-3.2,4.1-3.2c2.3,0,4.2,1.9,4.2,4.2c0,2.3-1.9,4.2-4.2,4.2
		c-2,0-3.6-1.4-4.1-3.2h-17.1c-0.6,0-1-0.4-1-1C482.1,299.9,482.5,299.5,483.1,299.5z M483.1,308.8h3.5c0.5-1.8,2.1-3.2,4.1-3.2
		s3.6,1.4,4.1,3.2h12.6c0.6,0,1,0.4,1,1c0,0.6-0.4,1-1,1h-12.6c-0.5,1.8-2.1,3.2-4.1,3.2s-3.6-1.4-4.1-3.2h-3.5c-0.6,0-1-0.4-1-1
		C482.1,309.2,482.5,308.8,483.1,308.8z M483.1,318.2h10.1c0.5-1.8,2.1-3.2,4.1-3.2c2,0,3.6,1.4,4.1,3.2h6c0.6,0,1,0.4,1,1
		s-0.4,1-1,1h-6c-0.5,1.8-2.1,3.2-4.1,3.2c-2,0-3.6-1.4-4.1-3.2h-10.1c-0.6,0-1-0.4-1-1S482.5,318.2,483.1,318.2z"/>
	<path class="st3" d="M479.7,344.6l-6,7.7c-0.2,0.2-0.4,0.4-0.7,0.4c-0.3,0-0.6-0.1-0.8-0.3l-5.1-5.4l-8.1,9.3
		c-0.1,0-0.4,0.1-0.7,0.1c-0.1,0-0.3,0-0.4-0.1l-11.5-5.6v9.8l12,6.2l8.7-11.1c0.2-0.2,0.5-0.4,0.8-0.4s0.6,0.1,0.8,0.4l5.4,6.7h5.9
		l9.5-9.5v-5.5c0-1.3-0.4-2.6-1.1-3.6L479.7,344.6z"/>
	<path class="st3" d="M493.5,261.4c-42.7,0-77.4,34.7-77.4,77.4s34.7,77.4,77.4,77.4c42.7,0,77.4-34.7,77.4-77.4
		S536.2,261.4,493.5,261.4z M471.4,300.7c-0.1-2.9,1.5-5.7,4.1-7.2l15.3-8.9c2.6-1.5,5.7-1.5,8.3,0l15.3,8.9
		c2.6,1.4,4.1,4.1,4.1,7.2v17.7c0,2.9-1.6,5.7-4.1,7.2l-15.3,8.9c-1.3,0.7-2.7,1.1-4.2,1.1c-1.4,0-2.8-0.4-4.1-1.1l-15.3-8.9
		c-2.6-1.4-4.1-4.1-4.1-7.2V300.7z M491.5,365.1c0,2.9-1.6,5.7-4.1,7.2l-15.3,8.9c-1.3,0.7-2.7,1.1-4.2,1.1c-1.4,0-2.8-0.4-4.1-1.1
		l-15.3-8.9c-2.6-1.4-4.1-4.1-4.1-7.2v-3.6c-0.2-0.3-0.2-0.6,0-0.9v-11.1c-0.1-0.2-0.1-0.5,0-0.8v-1.3c-0.1-2.9,1.5-5.7,4.1-7.2
		l15.3-8.9c2.6-1.5,5.7-1.5,8.3,0l15.3,8.9c2.6,1.4,4.1,4.1,4.1,7.2v5.4c0.1,0.3,0.1,0.6,0,0.8V365.1z M546,356.6
		c-0.1,1.7-0.8,3.3-2,4.5c1.3,1.4,2.1,3.3,2,5.4c-0.1,2.4-1.5,4.6-3.6,5.9l-15.6,9c-1.5,0.9-3.2,1.3-4.9,1.3s-3.4-0.4-4.9-1.3
		l-15.6-9c-2.1-1.2-3.4-3.4-3.6-5.8c-0.1-2,0.6-4,2.1-5.4c-1.2-1.2-1.9-2.9-2.1-4.7c-0.1-2,0.6-4,2-5.4c-1.2-1.3-1.9-3-1.9-4.9
		c0-2.6,1.3-5,3.6-6.3l15.6-9c3-1.8,6.7-1.8,9.8,0l15.6,9c2.2,1.3,3.6,3.7,3.6,6.3c0,1.9-0.7,3.7-2,5.1
		C545.4,352.7,546,354.7,546,356.6z"/>
	<path class="st4" d="M475.5,325.6l15.3,8.9c1.3,0.7,2.7,1.1,4.1,1.1c1.5,0,2.9-0.4,4.2-1.1l15.3-8.9c2.5-1.5,4.1-4.3,4.1-7.2v-17.7
		c0-3.1-1.5-5.8-4.1-7.2l-15.3-8.9c-2.6-1.5-5.7-1.5-8.3,0l-15.3,8.9c-2.6,1.5-4.2,4.3-4.1,7.2v17.7
		C471.4,321.5,472.9,324.2,475.5,325.6z M473.4,300.6c-0.1-2.2,1.1-4.3,3.1-5.4l15.3-8.9c1-0.6,2.1-0.9,3.2-0.9c1,0,2.1,0.3,3.1,0.9
		l15.3,8.9c1.9,1.1,3.1,3.1,3.1,5.4v17.7c0,2.2-1.2,4.3-3.1,5.4l-15.3,8.9c-2,1.1-4.3,1.1-6.3,0l-15.3-8.9c-1.9-1.1-3.1-3.1-3.1-5.4
		V300.6z"/>
	<path class="st4" d="M483.1,301.5h17.1c0.5,1.8,2.1,3.2,4.1,3.2c2.3,0,4.2-1.9,4.2-4.2c0-2.3-1.9-4.2-4.2-4.2c-2,0-3.6,1.4-4.1,3.2
		h-17.1c-0.6,0-1,0.4-1,1C482.1,301.1,482.5,301.5,483.1,301.5z M504.3,298.3c1.2,0,2.2,1,2.2,2.2s-1,2.2-2.2,2.2
		c-1.2,0-2.2-1-2.2-2.2S503.1,298.3,504.3,298.3z"/>
	<path class="st4" d="M483.1,310.8h3.5c0.5,1.8,2.1,3.2,4.1,3.2s3.6-1.4,4.1-3.2h12.6c0.6,0,1-0.4,1-1c0-0.6-0.4-1-1-1h-12.6
		c-0.5-1.8-2.1-3.2-4.1-3.2s-3.6,1.4-4.1,3.2h-3.5c-0.6,0-1,0.4-1,1C482.1,310.4,482.5,310.8,483.1,310.8z M490.7,307.6
		c1.2,0,2.2,1,2.2,2.2s-1,2.2-2.2,2.2s-2.2-1-2.2-2.2S489.5,307.6,490.7,307.6z"/>
	<path class="st4" d="M483.1,320.2h10.1c0.5,1.8,2.1,3.2,4.1,3.2c2,0,3.6-1.4,4.1-3.2h6c0.6,0,1-0.4,1-1s-0.4-1-1-1h-6
		c-0.5-1.8-2.1-3.2-4.1-3.2c-2,0-3.6,1.4-4.1,3.2h-10.1c-0.6,0-1,0.4-1,1S482.5,320.2,483.1,320.2z M497.3,317c1.2,0,2.2,1,2.2,2.2
		s-1,2.2-2.2,2.2c-1.1,0-2-0.8-2.2-1.8c0-0.1,0.1-0.2,0.1-0.4s0-0.2-0.1-0.4C495.3,317.8,496.2,317,497.3,317z"/>
	<path class="st4" d="M491.5,352.7v-5.4c0-3.1-1.5-5.8-4.1-7.2l-15.3-8.9c-2.6-1.5-5.7-1.5-8.3,0l-15.3,8.9
		c-2.6,1.5-4.2,4.3-4.1,7.2v1.3c-0.1,0.3-0.1,0.5,0,0.8v11.1c-0.2,0.3-0.2,0.6,0,0.9v3.6c0,3.1,1.5,5.8,4.1,7.2l15.3,8.9
		c1.3,0.7,2.7,1.1,4.1,1.1c1.5,0,2.9-0.4,4.2-1.1l15.3-8.9c2.5-1.5,4.1-4.3,4.1-7.2v-11.5C491.6,353.3,491.6,353,491.5,352.7z
		 M489.5,347.4v5.5l-9.5,9.5h-5.9l-5.4-6.7c-0.2-0.3-0.5-0.4-0.8-0.4s-0.6,0.2-0.8,0.4l-8.7,11.1l-12-6.2v-9.8l11.5,5.6
		c0.1,0.1,0.3,0.1,0.4,0.1c0.3,0,0.6-0.1,0.7-0.1l8.1-9.3l5.1,5.4c0.2,0.2,0.5,0.3,0.8,0.3c0.3,0,0.5-0.2,0.7-0.4l6-7.7l8.7-0.8
		C489,344.8,489.5,346,489.5,347.4z M449.5,342l15.3-8.9c1-0.6,2.1-0.9,3.2-0.9c1,0,2.1,0.3,3.1,0.9l15.3,8.9l-7.3,0.6
		c-0.3,0-0.5,0.2-0.7,0.4l-5.6,7.1l-5.1-5.4c-0.1-0.2-0.4-0.3-0.7-0.3c-0.2,0-0.5,0.1-0.7,0.3l-8.3,9.5l-11.6-5.7v-1.1
		C446.3,345.2,447.5,343.1,449.5,342z M486.4,370.5l-15.3,8.9c-2,1.1-4.3,1.1-6.3,0l-15.3-8.9c-1.9-1.1-3.1-3.1-3.1-5.4v-2.4
		l11.8,6.2c0.2,0.1,0.3,0.1,0.5,0.1c0.3,0,0.6-0.1,0.8-0.3l8.4-10.8l4.9,6.1c0.2,0.3,0.5,0.4,0.8,0.4h6.8c0.3,0,0.5-0.1,0.7-0.3
		l8.4-8.4v9.4C489.5,367.3,488.3,369.4,486.4,370.5z"/>
	<path class="st4" d="M542.5,340l-15.6-9c-3.1-1.8-6.8-1.8-9.8,0l-15.6,9c-2.3,1.3-3.6,3.7-3.6,6.3c0,1.8,0.7,3.6,1.9,4.9
		c-1.4,1.4-2.1,3.4-2,5.4c0.1,1.8,0.9,3.5,2.1,4.7c-1.4,1.4-2.2,3.4-2.1,5.4c0.2,2.4,1.5,4.6,3.6,5.8l15.6,9
		c1.5,0.9,3.2,1.3,4.9,1.3s3.4-0.4,4.9-1.3l15.6-9c2.1-1.3,3.5-3.5,3.6-5.9c0.1-2.1-0.7-4-2-5.4c1.2-1.2,1.9-2.8,2-4.5
		c0.1-2-0.6-3.9-1.9-5.3c1.3-1.3,2-3.2,2-5.1C546.1,343.7,544.7,341.3,542.5,340z M502.5,341.8l15.6-9c2.4-1.4,5.3-1.4,7.8,0l15.6,9
		c1.6,0.9,2.6,2.6,2.6,4.5s-1,3.6-2.6,4.5l-15.6,9c-2.4,1.4-5.3,1.4-7.8,0l-15.6-9c-1.6-0.9-2.6-2.6-2.6-4.5
		S500.9,342.7,502.5,341.8z M501.3,352.4c0.1,0,0.1,0.1,0.2,0.1l15.6,9c1.5,0.9,3.2,1.3,4.9,1.3c1.7,0,3.4-0.4,4.9-1.3l15.6-9
		c1.1,1,1.6,2.5,1.5,4c-0.1,1.5-0.8,2.8-1.9,3.7c-0.1,0.1-0.2,0.1-0.3,0.2c-0.1,0.1-0.2,0.2-0.3,0.2l-15.6,9c-2.4,1.4-5.3,1.4-7.8,0
		l-15.6-9c-1.6-1-2.5-2.5-2.6-4.3C499.7,354.9,500.3,353.5,501.3,352.4z M541.4,370.8l-15.6,9c-2.4,1.4-5.3,1.4-7.8,0l-15.6-9
		c-1.6-0.9-2.5-2.4-2.6-4.2c-0.1-1.5,0.5-3,1.7-4.1l15.5,9c1.5,0.9,3.2,1.3,4.9,1.3s3.4-0.4,4.9-1.3l15.6-9c0,0,0,0,0,0
		c1.1,1.1,1.7,2.5,1.6,4C543.9,368.3,542.9,369.9,541.4,370.8z"/>
	<path class="st4" d="M503.6,345.4c-0.8,0-1.4,0.6-1.4,1.4c0,0.8,0.6,1.4,1.4,1.4s1.4-0.6,1.4-1.4S504.4,345.4,503.6,345.4z"/>
	<path class="st4" d="M507.1,347.4c-0.8,0-1.4,0.6-1.4,1.4c0,0.8,0.6,1.4,1.4,1.4s1.4-0.6,1.4-1.4S507.9,347.4,507.1,347.4z"/>
	<path class="st4" d="M503.6,366.1c-0.8,0-1.4,0.6-1.4,1.4c0,0.8,0.6,1.4,1.4,1.4s1.4-0.6,1.4-1.4S504.4,366.1,503.6,366.1z
		 M503.6,368.1c-0.3,0-0.6-0.3-0.6-0.6s0.3-0.6,0.6-0.6s0.6,0.3,0.6,0.6S503.9,368.1,503.6,368.1z"/>
	<path class="st4" d="M507.1,368.3c-0.8,0-1.4,0.6-1.4,1.4c0,0.8,0.6,1.4,1.4,1.4s1.4-0.6,1.4-1.4
		C508.5,368.9,507.9,368.3,507.1,368.3z M507.1,370.3c-0.3,0-0.6-0.3-0.6-0.6s0.3-0.6,0.6-0.6s0.6,0.3,0.6,0.6
		S507.4,370.3,507.1,370.3z"/>
	<path class="st4" d="M503.6,358.8c0.8,0,1.4-0.6,1.4-1.4s-0.6-1.4-1.4-1.4s-1.4,0.6-1.4,1.4C502.2,358.2,502.8,358.8,503.6,358.8z
		 M503.6,356.8c0.3,0,0.6,0.3,0.6,0.6s-0.3,0.6-0.6,0.6s-0.6-0.3-0.6-0.6S503.3,356.8,503.6,356.8z"/>
	<path class="st4" d="M507.1,360.8c0.8,0,1.4-0.6,1.4-1.4s-0.6-1.4-1.4-1.4s-1.4,0.6-1.4,1.4C505.7,360.2,506.3,360.8,507.1,360.8z
		 M507.1,358.8c0.3,0,0.6,0.3,0.6,0.6s-0.3,0.6-0.6,0.6s-0.6-0.3-0.6-0.6S506.8,358.8,507.1,358.8z"/>
	<path class="st0" d="M347.8,336.8c-1.1-47.4-39.8-85.5-87.5-85.5c-47.7,0-86.4,38.1-87.5,85.5l0.2,8c3.1,45.5,41,81.5,87.3,81.5
		c46.3,0,84.2-36,87.3-81.5L347.8,336.8z M580.9,336.8c-1.1-47.4-39.8-85.5-87.5-85.5c-47.7,0-86.4,38.1-87.5,85.5l0.2,8
		c3.1,45.5,41,81.5,87.3,81.5c46.3,0,84.2-36,87.3-81.5L580.9,336.8z M814.1,336.8c-1.4-47.1-40-84.8-87.5-84.8
		c-47.4,0-86,37.7-87.5,84.8l0.1,8c2.7,45.9,40.8,82.2,87.3,82.2c46.5,0,84.6-36.3,87.3-82.2L814.1,336.8z M260.4,416.2
		c-42.7,0-77.4-34.7-77.4-77.4s34.7-77.4,77.4-77.4s77.4,34.7,77.4,77.4S303.1,416.2,260.4,416.2z M493.5,416.2
		c-42.7,0-77.4-34.7-77.4-77.4s34.7-77.4,77.4-77.4c42.7,0,77.4,34.7,77.4,77.4S536.2,416.2,493.5,416.2z M726.7,416.9
		c-42.7,0-77.4-34.7-77.4-77.4s34.7-77.4,77.4-77.4c42.7,0,77.4,34.7,77.4,77.4S769.4,416.9,726.7,416.9z"/>
	<path class="st3" d="M736.4,361.6l-6.5-3.7c-1.3-0.8-2.9-0.8-4.3,0l-6.5,3.7c-1.4,0.8-2.2,2.2-2.2,3.7v7.5c0,1.6,0.8,2.9,2.2,3.7
		l6.5,3.7c1.3,0.8,2.9,0.8,4.3,0l6.5-3.7c1.4-0.7,2.2-2.1,2.2-3.7v-7.5C738.6,363.7,737.8,362.4,736.4,361.6z"/>
	<path class="st3" d="M726.7,262.1c-42.7,0-77.4,34.7-77.4,77.4s34.7,77.4,77.4,77.4c42.7,0,77.4-34.7,77.4-77.4
		S769.4,262.1,726.7,262.1z M750.9,343.9c0-1.6-0.8-3-2.2-3.7l-4.6-2.6c-0.5-0.3-0.6-0.9-0.4-1.4c0.3-0.5,0.9-0.7,1.4-0.4l4.6,2.6
		c2,1,3.2,3.1,3.2,5.5v5.5c0,0.6-0.4,1-1,1c-0.6,0-1-0.4-1-1V343.9z M765.4,337.8v5.4c0,0.6-0.4,1-1,1c-0.6,0-1-0.4-1-1v-5.4
		c0-0.6,0.4-1,1-1C765,336.8,765.4,337.2,765.4,337.8z M756.1,314.7c0.3-0.5,0.9-0.7,1.4-0.4l4.6,2.6c2,1,3.2,3.1,3.2,5.5v5.5
		c0,0.6-0.4,1-1,1c-0.6,0-1-0.4-1-1v-5.5c0-1.6-0.8-3-2.2-3.7l-4.6-2.6C756,315.8,755.9,315.2,756.1,314.7z M742.5,307.1
		c0.3-0.5,0.9-0.6,1.4-0.4l4.7,2.7c0.5,0.3,0.6,0.9,0.4,1.4c-0.2,0.3-0.6,0.5-0.9,0.5c-0.2,0-0.3,0-0.5-0.1l-4.7-2.7
		C742.4,308.2,742.3,307.6,742.5,307.1z M719.8,301.6l4.7-2.7c2-1.2,4.4-1.2,6.3,0l4.6,2.6c0.5,0.3,0.6,0.9,0.4,1.4
		c-0.3,0.5-0.9,0.6-1.4,0.4l-4.6-2.6c-1.3-0.8-2.9-0.8-4.3,0l-4.7,2.7c-0.2,0.1-0.3,0.1-0.5,0.1c-0.3,0-0.7-0.2-0.9-0.5
		C719.1,302.5,719.3,301.9,719.8,301.6z M719.8,330.2l4.7-2.7c2-1.2,4.4-1.2,6.3,0l4.6,2.6c0.5,0.3,0.6,0.9,0.4,1.4
		s-0.9,0.7-1.4,0.4l-4.6-2.6c-1.3-0.8-2.9-0.8-4.3,0l-4.7,2.7c-0.2,0.1-0.3,0.1-0.5,0.1c-0.3,0-0.7-0.2-0.9-0.5
		C719.1,331.1,719.3,330.5,719.8,330.2z M706.6,309.4l4.6-2.7c0.5-0.3,1.1-0.1,1.4,0.4s0.1,1.1-0.4,1.4l-4.6,2.7
		c-0.2,0.1-0.3,0.1-0.5,0.1c-0.3,0-0.7-0.2-0.9-0.5C705.9,310.3,706.1,309.7,706.6,309.4z M690.1,322.4c0-2.3,1.2-4.4,3.2-5.5
		l4.6-2.6c0.5-0.3,1.1-0.1,1.4,0.4s0.1,1.1-0.4,1.4l-4.6,2.6c-1.4,0.7-2.2,2.1-2.2,3.7v5.5c0,0.6-0.4,1-1,1c-0.6,0-1-0.4-1-1V322.4z
		 M692,337.8v5.4c0,0.6-0.4,1-1,1c-0.6,0-1-0.4-1-1v-5.4c0-0.6,0.4-1,1-1C691.6,336.8,692,337.2,692,337.8z M702.5,343.9
		c0-2.3,1.2-4.4,3.2-5.5l4.6-2.6c0.5-0.3,1.1-0.1,1.4,0.4c0.3,0.5,0.1,1.1-0.4,1.4l-4.6,2.6c-1.4,0.7-2.2,2.1-2.2,3.7v5.5
		c0,0.6-0.4,1-1,1c-0.6,0-1-0.4-1-1V343.9z M699.3,366.3c-0.2,0.3-0.6,0.5-0.9,0.5c-0.2,0-0.3,0-0.5-0.1l-4.7-2.7
		c-2-1.2-3.2-3.2-3.2-5.5v-5.3c0-0.6,0.4-1,1-1c0.6,0,1,0.4,1,1v5.3c0,1.5,0.8,2.9,2.2,3.7l4.7,2.7
		C699.4,365.2,699.5,365.8,699.3,366.3z M711.2,373.2c-0.2,0.3-0.6,0.5-0.9,0.5c-0.2,0-0.3,0-0.5-0.1l-4.2-2.4
		c-2-1.2-3.2-3.2-3.2-5.5v-5.5c0-0.6,0.4-1,1-1c0.6,0,1,0.4,1,1v5.5c0,1.6,0.8,2.9,2.2,3.7l4.2,2.4
		C711.3,372.1,711.4,372.7,711.2,373.2z M740.6,372.6c0,2.3-1.2,4.4-3.2,5.5l-6.5,3.7c-1,0.7-2.1,0.9-3.2,0.9
		c-1.1,0-2.2-0.3-3.1-0.9l-6.5-3.7c-2-1.2-3.2-3.2-3.2-5.5v-7.5c0-2.2,1.2-4.3,3.2-5.5l6.5-3.7c2-1.2,4.4-1.2,6.3,0l6.5,3.7
		c2,1.2,3.2,3.2,3.2,5.5V372.6z M753,365.6c0,2.2-1.2,4.3-3.2,5.5l-4.2,2.4c-0.2,0.1-0.3,0.1-0.5,0.1c-0.3,0-0.7-0.2-0.9-0.5
		c-0.3-0.5-0.1-1.1,0.4-1.4l4.2-2.4c1.4-0.8,2.2-2.2,2.2-3.7v-5.5c0-0.6,0.4-1,1-1c0.6,0,1,0.4,1,1V365.6z M765.4,358.4
		c0,2.2-1.2,4.3-3.2,5.5l-4.7,2.7c-0.2,0.1-0.3,0.1-0.5,0.1c-0.3,0-0.7-0.2-0.9-0.5c-0.3-0.5-0.1-1.1,0.4-1.4l4.7-2.7
		c1.4-0.8,2.2-2.2,2.2-3.7v-5.3c0-0.6,0.4-1,1-1c0.6,0,1,0.4,1,1V358.4z"/>
	<path class="st4" d="M737.4,359.6l-6.5-3.7c-1.9-1.2-4.3-1.2-6.3,0l-6.5,3.7c-2,1.2-3.2,3.3-3.2,5.5v7.5c0,2.3,1.2,4.3,3.2,5.5
		l6.5,3.7c0.9,0.6,2,0.9,3.1,0.9c1.1,0,2.2-0.2,3.2-0.9l6.5-3.7c2-1.1,3.2-3.2,3.2-5.5v-7.5C740.6,362.9,739.4,360.9,737.4,359.6z
		 M738.6,372.8c0,1.6-0.8,3-2.2,3.7l-6.5,3.7c-1.4,0.8-3,0.8-4.3,0l-6.5-3.7c-1.4-0.8-2.2-2.1-2.2-3.7v-7.5c0-1.5,0.8-2.9,2.2-3.7
		l6.5-3.7c1.4-0.8,3-0.8,4.3,0l6.5,3.7c1.4,0.8,2.2,2.1,2.2,3.7V372.8z"/>
	<path class="st4" d="M703.5,350.4c0.6,0,1-0.4,1-1v-5.5c0-1.6,0.8-3,2.2-3.7l4.6-2.6c0.5-0.3,0.7-0.9,0.4-1.4
		c-0.3-0.5-0.9-0.7-1.4-0.4l-4.6,2.6c-2,1.1-3.2,3.2-3.2,5.5v5.5C702.5,350,702.9,350.4,703.5,350.4z"/>
	<path class="st4" d="M691.1,328.9c0.6,0,1-0.4,1-1v-5.5c0-1.6,0.8-3,2.2-3.7l4.6-2.6c0.5-0.3,0.7-0.9,0.4-1.4s-0.9-0.7-1.4-0.4
		l-4.6,2.6c-2,1.1-3.2,3.2-3.2,5.5v5.5C690.1,328.5,690.5,328.9,691.1,328.9z"/>
	<path class="st4" d="M720.3,332.1c0.2,0,0.3,0,0.5-0.1l4.7-2.7c1.4-0.8,3-0.8,4.3,0l4.6,2.6c0.5,0.3,1.2,0.1,1.4-0.4
		s0.1-1.1-0.4-1.4l-4.6-2.6c-1.9-1.2-4.3-1.2-6.3,0l-4.7,2.7c-0.5,0.3-0.7,0.9-0.4,1.4C719.6,331.9,720,332.1,720.3,332.1z"/>
	<path class="st4" d="M720.3,303.5c0.2,0,0.3,0,0.5-0.1l4.7-2.7c1.4-0.8,3-0.8,4.3,0l4.6,2.6c0.5,0.2,1.1,0.1,1.4-0.4
		c0.2-0.5,0.1-1.1-0.4-1.4l-4.6-2.6c-1.9-1.2-4.3-1.2-6.3,0l-4.7,2.7c-0.5,0.3-0.7,0.9-0.4,1.4C719.6,303.3,720,303.5,720.3,303.5z"
		/>
	<path class="st4" d="M698.9,364.9l-4.7-2.7c-1.4-0.8-2.2-2.2-2.2-3.7v-5.3c0-0.6-0.4-1-1-1c-0.6,0-1,0.4-1,1v5.3
		c0,2.3,1.2,4.3,3.2,5.5l4.7,2.7c0.2,0.1,0.3,0.1,0.5,0.1c0.3,0,0.7-0.2,0.9-0.5C699.5,365.8,699.4,365.2,698.9,364.9z"/>
	<path class="st4" d="M710.8,371.8l-4.2-2.4c-1.4-0.8-2.2-2.1-2.2-3.7v-5.5c0-0.6-0.4-1-1-1c-0.6,0-1,0.4-1,1v5.5
		c0,2.3,1.2,4.3,3.2,5.5l4.2,2.4c0.2,0.1,0.3,0.1,0.5,0.1c0.3,0,0.7-0.2,0.9-0.5C711.4,372.7,711.3,372.1,710.8,371.8z"/>
	<path class="st4" d="M751.9,350.4c0.6,0,1-0.4,1-1v-5.5c0-2.4-1.2-4.5-3.2-5.5l-4.6-2.6c-0.5-0.3-1.1-0.1-1.4,0.4
		c-0.2,0.5-0.1,1.1,0.4,1.4l4.6,2.6c1.4,0.7,2.2,2.1,2.2,3.7v5.5C750.9,350,751.3,350.4,751.9,350.4z"/>
	<path class="st4" d="M756.5,316.1l4.6,2.6c1.4,0.7,2.2,2.1,2.2,3.7v5.5c0,0.6,0.4,1,1,1c0.6,0,1-0.4,1-1v-5.5
		c0-2.4-1.2-4.5-3.2-5.5l-4.6-2.6c-0.5-0.3-1.1-0.1-1.4,0.4C755.9,315.2,756,315.8,756.5,316.1z"/>
	<path class="st4" d="M764.4,352.1c-0.6,0-1,0.4-1,1v5.3c0,1.5-0.8,2.9-2.2,3.7l-4.7,2.7c-0.5,0.3-0.7,0.9-0.4,1.4
		c0.2,0.3,0.6,0.5,0.9,0.5c0.2,0,0.3,0,0.5-0.1l4.7-2.7c2-1.2,3.2-3.3,3.2-5.5v-5.3C765.4,352.6,765,352.1,764.4,352.1z"/>
	<path class="st4" d="M752,359.1c-0.6,0-1,0.4-1,1v5.5c0,1.5-0.8,2.9-2.2,3.7l-4.2,2.4c-0.5,0.3-0.7,0.9-0.4,1.4
		c0.2,0.3,0.6,0.5,0.9,0.5c0.2,0,0.3,0,0.5-0.1l4.2-2.4c2-1.2,3.2-3.3,3.2-5.5v-5.5C753,359.6,752.6,359.1,752,359.1z"/>
	<path class="st4" d="M707.1,311.3c0.2,0,0.3,0,0.5-0.1l4.6-2.7c0.5-0.3,0.7-0.9,0.4-1.4s-0.9-0.7-1.4-0.4l-4.6,2.7
		c-0.5,0.3-0.7,0.9-0.4,1.4C706.4,311.1,706.8,311.3,707.1,311.3z"/>
	<path class="st4" d="M742.9,308.5l4.7,2.7c0.2,0.1,0.3,0.1,0.5,0.1c0.3,0,0.7-0.2,0.9-0.5c0.2-0.5,0.1-1.1-0.4-1.4l-4.7-2.7
		c-0.5-0.2-1.1-0.1-1.4,0.4C742.3,307.6,742.4,308.2,742.9,308.5z"/>
	<path class="st4" d="M690,337.8v5.4c0,0.6,0.4,1,1,1c0.6,0,1-0.4,1-1v-5.4c0-0.6-0.4-1-1-1C690.4,336.8,690,337.2,690,337.8z"/>
	<path class="st4" d="M763.4,337.8v5.4c0,0.6,0.4,1,1,1c0.6,0,1-0.4,1-1v-5.4c0-0.6-0.4-1-1-1C763.8,336.8,763.4,337.2,763.4,337.8z
		"/>
	<path class="st3" d="M260.4,261.4c-42.7,0-77.4,34.7-77.4,77.4s34.7,77.4,77.4,77.4s77.4-34.7,77.4-77.4S303.1,261.4,260.4,261.4z
		 M261.5,382.7c-0.6,0-1-0.4-1-1v-51.1l-14.1,14.1c-0.4,0.4-1,0.4-1.4,0c-0.4-0.4-0.4-1,0-1.4l15.7-15.7c0.2-0.3,0.4-0.4,0.8-0.4
		c0,0,0,0,0,0c0.4,0,0.6,0.2,0.8,0.4l15.8,15.7c0.4,0.4,0.4,1,0,1.4c-0.2,0.2-0.4,0.3-0.7,0.3s-0.5-0.1-0.7-0.3l-14.2-14.1v51.1
		C262.5,382.3,262.1,382.7,261.5,382.7z M292,362.4l-16.6,9.6c-0.5,0.3-1.1,0.1-1.4-0.4s-0.1-1.1,0.4-1.4l16.6-9.6
		c3.3-1.9,5.3-5.4,5.3-9.1v-28c0-3.7-2-7.2-5.3-9.1l-24.2-14c-3.3-1.9-7.2-1.9-10.5,0l-24.2,14c-3.3,1.9-5.3,5.4-5.3,9.1v28
		c0,3.7,2,7.2,5.3,9.1l16.6,9.6c0.5,0.3,0.6,0.9,0.4,1.4c-0.2,0.3-0.6,0.5-0.9,0.5c-0.2,0-0.3,0-0.5-0.1l-16.6-9.6
		c-3.9-2.3-6.3-6.4-6.3-10.9v-28c0-4.4,2.4-8.6,6.3-10.9l24.2-14c3.9-2.3,8.6-2.3,12.5,0l24.2,14c3.9,2.3,6.3,6.4,6.3,10.9v28
		C298.3,355.9,295.9,360.1,292,362.4z"/>
	<path class="st4" d="M298.3,323.5c0-4.5-2.4-8.6-6.3-10.9l-24.2-14c-3.9-2.3-8.6-2.3-12.5,0l-24.2,14c-3.9,2.3-6.3,6.5-6.3,10.9v28
		c0,4.5,2.4,8.6,6.3,10.9l16.6,9.6c0.2,0.1,0.3,0.1,0.5,0.1c0.3,0,0.7-0.2,0.9-0.5c0.2-0.5,0.1-1.1-0.4-1.4l-16.6-9.6
		c-3.3-1.9-5.3-5.4-5.3-9.1v-28c0-3.7,2-7.2,5.3-9.1l24.2-14c3.3-1.9,7.2-1.9,10.5,0l24.2,14c3.3,1.9,5.3,5.4,5.3,9.1v28
		c0,3.7-2,7.2-5.3,9.1l-16.6,9.6c-0.5,0.3-0.7,0.9-0.4,1.4s0.9,0.7,1.4,0.4l16.6-9.6c3.9-2.3,6.3-6.5,6.3-10.9V323.5z"/>
	<path class="st4" d="M262.5,330.5l14.2,14.1c0.2,0.2,0.4,0.3,0.7,0.3s0.5-0.1,0.7-0.3c0.4-0.4,0.4-1,0-1.4l-15.8-15.7
		c-0.2-0.3-0.4-0.4-0.8-0.4c0,0,0,0,0,0c-0.4,0-0.6,0.2-0.8,0.4L245,343.3c-0.4,0.4-0.4,1,0,1.4c0.4,0.4,1,0.4,1.4,0l14.1-14.1v51.1
		c0,0.6,0.4,1,1,1c0.6,0,1-0.4,1-1V330.5z"/>
	<path class="st4" d="M468.1,449.4v-13.3h-3l-3.5,10.6l-3.6-10.6h-3v13.3h2v-10c0.3,1.3,0.5,1.8,0.8,2.8l2.6,7.2h2l2.6-7.2
		c0.3-0.9,0.6-1.8,0.8-2.7v9.9H468.1z"/>
	<path class="st4" d="M479.6,446.3l1.1,3.2h2.3l-4.7-13.4h-2.2l-4.8,13.4h2.1l1.1-3.2H479.6z M477.2,438.9l1.8,5.4h-3.7L477.2,438.9
		z"/>
	<polygon class="st4" points="495.1,449.4 497.2,449.4 497.2,436.1 495.1,436.1 495.1,445.6 488.8,436.1 486.5,436.1 486.5,449.4 
		488.6,449.4 488.6,439.7 	"/>
	<path class="st4" d="M508.8,446.3l1.1,3.2h2.3l-4.7-13.4h-2.2l-4.8,13.4h2.1l1.1-3.2H508.8z M506.4,438.9l1.8,5.4h-3.7L506.4,438.9
		z"/>
	<path class="st4" d="M520.9,437.9c1.6,0,2.5,0.7,3.1,2.7l2.1-0.6c-0.8-3-2.7-4.2-5.2-4.2c-3.6,0-5.9,2.6-5.9,6.9c0,4.1,1.8,7,5.7,7
		c2,0,3.2-1.2,3.6-2.2v1.9h1.9v-6.6h-4.8v1.8h2.7c-0.1,2-1.3,3-3.1,3c-1.9,0-3.7-1.3-3.7-5S519.3,437.9,520.9,437.9z"/>
	<polygon class="st4" points="530.4,436.1 530.4,449.5 539.4,449.5 539.4,447.4 532.7,447.4 532.7,443.5 537.4,443.5 537.4,441.5 
		532.7,441.5 532.7,438.2 539.1,438.2 539.1,436.1 530.5,436.1 530.5,436.1 	"/>
	<path class="st4" d="M704,447.6c-1.7,0-2.9-0.7-3.7-2.3l-1.8,0.9c0.8,2,2.7,3.4,5.5,3.5c3.1,0,5-1.7,5-3.9c0-2.5-2-3.4-4.5-4.1
		c-2.1-0.6-3.1-1.1-3.1-2.3c0-1,0.8-1.5,2.3-1.5s2.6,0.6,3.4,1.9l1.6-1.1c-0.8-1.6-2.4-2.9-5-2.9c-2.7,0-4.6,1.5-4.6,3.8
		c0,2.5,2,3.2,4.6,4c2.2,0.6,3,1.1,3,2.3S705.6,447.6,704,447.6z"/>
	<path class="st4" d="M718.1,437.8c1.7,0,2.5,0.9,3,2.7l2.1-0.6c-0.6-2.4-2.1-4.1-5.2-4.1c-3.4,0-5.9,2.4-5.9,6.9
		c0,4.6,2.5,6.9,5.9,6.8c3.1,0,4.8-1.8,5.4-4.4l-2.1-0.5c-0.5,2-1.5,2.9-3.2,2.9c-2.2,0-3.6-1.7-3.6-4.9
		C714.5,439.5,715.8,437.8,718.1,437.8z"/>
	<path class="st4" d="M734.3,446.3l1.1,3.2h2.3l-4.7-13.4h-2.2l-4.8,13.4h2.1l1.1-3.2H734.3z M731.9,438.9l1.8,5.4H730L731.9,438.9z
		"/>
	<polygon class="st4" points="741.1,436.1 741.1,449.5 749.5,449.5 749.5,447.4 743.4,447.4 743.4,436.1 	"/>
	<polygon class="st4" points="761.6,438.2 761.6,436.1 753,436.1 752.9,449.5 761.9,449.5 761.9,447.4 755.2,447.4 755.2,443.5 
		759.9,443.5 759.9,441.5 755.2,441.5 755.2,438.2 	"/>
	<path class="st4" d="M236.1,442.7c0-4.7-2.7-6.6-6.9-6.6h-3.8v13.3h3.8C233.3,449.4,236.1,447.5,236.1,442.7z M229.4,447.4h-1.7
		v-9.2h1.7c3.1,0,4.5,1.3,4.5,4.5C233.9,446.1,232.4,447.4,229.4,447.4z"/>
	<polygon class="st4" points="248.6,438.2 248.6,436.1 240,436.1 239.9,449.5 248.9,449.5 248.9,447.4 242.2,447.4 242.2,443.5 
		246.9,443.5 246.9,441.5 242.2,441.5 242.2,438.2 	"/>
	<path class="st4" d="M257.2,444.4c2.7,0,5.2-1,5.2-4.2c0-3.1-2.2-4.1-5.1-4.1h-4.7v13.4h2.2v-5.1H257.2z M254.9,438.2h2.4
		c2,0,2.9,0.6,2.9,2.1s-0.9,2.1-2.9,2.1v0h-2.4V438.2z"/>
	<polygon class="st4" points="266,436.1 266,449.5 274.4,449.5 274.4,447.4 268.3,447.4 268.3,436.1 	"/>
	<path class="st4" d="M289.2,442.8c0-4.5-2.6-6.9-6-6.9c-3.4,0-6,2.4-6,6.9s2.6,6.9,6,6.9C286.6,449.7,289.2,447.3,289.2,442.8z
		 M279.4,442.8c0-3.1,1.5-4.8,3.8-4.8c2.2,0,3.7,1.7,3.7,4.8c0,3.1-1.5,4.9-3.7,4.9C280.9,447.7,279.4,445.9,279.4,442.8z"/>
	<polygon class="st4" points="296.2,449.4 298.5,449.4 298.5,443.7 303.1,436.1 300.8,436.1 297.5,441.8 294.2,436.1 291.8,436.1 
		296.3,443.7 296.2,443.7 	"/>
</g>
</svg>
